# xmcd
#
# Track frame offsets:
#	150
#	19772
#	36807
#	52687
#	67333
#	83111
#	99487
#	116313
#	132294
#	147727
#	163880
#	178513
#	194399
#	209494
#	226044
#	244612
#	261243
#	280606
#
# Disc length: 3956 seconds
#
# Revision: 1
# Processed by: cddbd v1.5PL3 Copyright (c) Steve Scherf et al.
# Submitted via: audiograbber 1.83.01
#
DISCID=fd0f7212
DTITLE=Various Artist - Хит сезона. Лето (Часть 1) (2004)
DYEAR=1900
DGENRE=
TTITLE0=Филипп Киркоров and Анастасия Стоцкая. - И ты скажешь...
TTITLE1=Дмитрий Маликов. - Не скучай.
TTITLE2=Она. - Убила бы.
TTITLE3=Александр Панайотов. - На краю.
TTITLE4=Данко. - Она.
TTITLE5=Динамит. - Расколем ночь.
TTITLE6=Иракли. - Лондон-Париж.
TTITLE7=Дюна and Наталья Сенчукова. - Милый мой ботаник.
TTITLE8=Наталья Ветлицкая. - Изучай меня.
TTITLE9=Гости из будущего. - Грустные сказки.
TTITLE10=Катя Лель. - Муси-пуси.
TTITLE11=Любовные истоии. - Скажи зачем.
TTITLE12=Алексей Романов. - Десять поцелуев.
TTITLE13=Слава. - Попутчица.
TTITLE14=V.I.P. - Прощай.
TTITLE15=Наталья Иванова. - Без тебя родной.
TTITLE16=Dj Skydreamer feat. Ю-кей. - Под дождем.
TTITLE17=Slej. - Хватит.
EXTD=
EXTT0=
EXTT1=
EXTT2=
EXTT3=
EXTT4=
EXTT5=
EXTT6=
EXTT7=
EXTT8=
EXTT9=
EXTT10=
EXTT11=
EXTT12=
EXTT13=
EXTT14=
EXTT15=
EXTT16=
EXTT17=
PLAYORDER=
